<?xml version="1.0" encoding="utf-8"?>
<!-- Svg Vector Icons : http://www.onlinewebfonts.com/icon -->
<!DOCTYPE svg PUBLIC "-//W3C//DTD SVG 1.1//EN" "http://www.w3.org/Graphics/SVG/1.1/DTD/svg11.dtd">
<svg version="1.1" xmlns="http://www.w3.org/2000/svg" xmlns:xlink="http://www.w3.org/1999/xlink" x="0px" y="0px" viewBox="0 0 256 256" enable-background="new 0 0 256 256" xml:space="preserve">
<metadata> Svg Vector Icons : http://www.onlinewebfonts.com/icon </metadata>
<g><g><path fill="#000000" d="M119.6,17.2L124.2,6c0.7,0.3,43.2,17.9,44.7,37.1c0.5,5.9-2.8,11.8-12.1,17.6l-6.4-10.4c4.8-2.9,6.4-5.3,6.3-6.2C156.2,38,138.2,24.9,119.6,17.2L119.6,17.2"/><path fill="#000000" d="M152.7,49.2l4.1,11.5c0,0-33,11.9-21.7,43.8l-11.5,4.1C112.4,76.7,134.8,55.6,152.7,49.2"/><path fill="#000000" d="M156.8,60.7l-6.4-10.4L156.8,60.7l-4.1-11.5L156.8,60.7L156.8,60.7L156.8,60.7L156.8,60.7L156.8,60.7L156.8,60.7z"/><path fill="#000000" d="M240.5,152.7c-16.3-62.4-49.8-67.4-49.8-67.4c-3.2-0.5-6.3-0.8-9.3-0.8c-19.9,0-33,10.9-33,10.9c-4.4,4.4-10.7,5-13.7,5c-1.1,0-1.8-0.1-1.8-0.1h-9.7c-10.3-0.4-15.4-4.9-15.4-4.9C94.5,85.3,82.2,84,76.9,84c-1.7,0-2.7,0.1-2.7,0.1C29.5,88.6,15.3,155,15.3,155c-15.5,76.1,7.9,90.3,7.9,90.3c4.4,3.5,8.7,4.8,12.9,4.8c12.3,0,22.2-11.6,22.2-11.6l24.9-30.9c7.8-9.6,12.3-10.4,12.3-10.4h65.1c6.3,0,14.3,12.7,14.3,12.7l23.8,29.7c7.6,7.9,15.1,10.1,20.9,10.1c7.1,0,11.9-3.2,11.9-3.2C257.6,226.9,240.5,152.7,240.5,152.7z M101.6,152.4H87.4v14.2c0,3.4-2.7,6.1-6.1,6.1s-6.1-2.7-6.1-6.1v-14.2H60.9c-3.4,0-6.1-2.7-6.1-6.1c0-3.4,2.7-6.1,6.1-6.1h14.2V126c0-3.4,2.7-6.1,6.1-6.1s6.1,2.7,6.1,6.1v14.2h14.2c3.4,0,6.1,2.7,6.1,6.1C107.7,149.7,105,152.4,101.6,152.4z M180.9,115.8c6.7,0,12.2,5.5,12.2,12.2c0,6.7-5.5,12.2-12.2,12.2c-6.7,0-12.2-5.5-12.2-12.2S174.2,115.8,180.9,115.8z M160.6,160.6c-6.7,0-12.2-5.5-12.2-12.2c0-6.8,5.5-12.2,12.2-12.2c6.8,0,12.2,5.5,12.2,12.2C172.8,155.1,167.3,160.6,160.6,160.6z M180.9,180.9c-6.7,0-12.2-5.5-12.2-12.2s5.5-12.2,12.2-12.2c6.7,0,12.2,5.5,12.2,12.2S187.7,180.9,180.9,180.9z M201.2,160.6c-6.7,0-12.2-5.5-12.2-12.2c0-6.8,5.5-12.2,12.2-12.2c6.8,0,12.2,5.5,12.2,12.2C213.5,155.1,208,160.6,201.2,160.6z"/></g></g>
</svg>